<?xml version="1.0" standalone="no"?>
<!DOCTYPE svg PUBLIC "-//W3C//DTD SVG 20010904//EN"
 "http://www.w3.org/TR/2001/REC-SVG-20010904/DTD/svg10.dtd">
<svg version="1.0" xmlns="http://www.w3.org/2000/svg"
 width="384.000000pt" height="384.000000pt" viewBox="0 0 384.000000 384.000000"
 preserveAspectRatio="xMidYMid meet">
<metadata>
Created by potrace 1.14, written by Peter Selinger 2001-2017
</metadata>
<g transform="translate(0.000000,384.000000) scale(0.100000,-0.100000)"
fill="#5686bf" stroke="none">
<path d="M445 2647 c-70 -39 -69 -36 -73 -196 -7 -365 -6 -343 -26 -355 -50
-28 -61 -49 -58 -106 3 -49 7 -58 33 -75 26 -18 29 -26 30 -75 2 -93 6 -155
13 -195 5 -23 3 -49 -4 -66 -15 -35 -6 -88 18 -115 9 -10 18 -30 19 -44 7
-105 43 -160 102 -160 20 0 43 6 52 13 17 13 26 108 12 129 -10 17 -12 151 -3
194 4 18 3 37 -2 42 -5 5 -5 18 0 33 5 13 7 33 5 44 -2 11 -4 25 -4 30 0 6 2
46 3 90 l3 80 35 -1 c19 -1 51 -3 70 -4 47 -2 129 5 136 13 4 3 20 -1 35 -9
26 -13 34 -13 77 2 55 19 154 25 234 14 42 -6 70 -4 105 7 27 8 76 16 111 17
34 2 65 6 68 9 4 4 15 2 25 -4 11 -5 19 -6 20 -2 0 4 7 -5 14 -22 7 -16 10
-38 6 -50 -5 -11 -9 -47 -10 -80 -2 -33 -6 -66 -10 -75 -9 -20 -4 -314 7 -410
5 -41 15 -88 22 -105 8 -16 14 -38 15 -48 4 -30 18 -37 56 -27 37 10 87 55 76
67 -4 3 -3 11 2 17 12 14 16 86 6 109 -4 9 -5 26 -2 37 3 11 1 20 -3 20 -5 0
-7 8 -5 18 2 9 4 17 5 17 1 0 4 14 6 30 6 37 12 68 14 75 1 3 1 26 0 52 -1 25
4 55 11 65 8 14 9 25 2 38 -7 11 -7 30 -2 49 4 17 10 69 12 116 4 83 21 134
42 126 5 -2 22 6 38 16 15 11 27 17 27 14 0 -3 11 -1 24 4 18 6 28 5 36 -6 16
-18 23 -18 48 4 12 10 32 18 44 17 13 -1 29 5 36 12 8 8 23 11 33 8 11 -4 39
5 69 22 43 24 50 31 45 51 -3 13 -1 30 5 37 9 10 3 13 -27 15 -90 4 -271 -4
-313 -14 -14 -3 -37 -8 -52 -11 l-26 -5 4 88 c2 48 8 102 13 120 6 19 6 32 0
32 -5 0 -8 10 -8 23 1 12 -4 37 -9 54 -6 18 -7 35 -3 37 4 3 6 26 5 53 -1 26
-3 56 -3 66 -1 10 -6 15 -11 12 -6 -3 -13 1 -16 9 -6 14 -24 16 -59 5 -5 -2
-21 3 -33 10 -13 7 -26 10 -29 7 -3 -2 -16 -1 -29 4 -21 9 -26 6 -39 -27 -9
-20 -24 -43 -35 -50 -11 -8 -20 -23 -20 -33 0 -10 -4 -22 -10 -25 -6 -4 -4
-17 5 -35 8 -16 15 -34 15 -40 0 -6 8 -29 19 -50 16 -33 17 -42 5 -58 -7 -11
-11 -21 -9 -23 2 -3 7 -20 10 -39 3 -19 8 -36 10 -38 2 -2 -1 -17 -6 -34 -5
-18 -5 -38 1 -48 6 -11 5 -17 -3 -18 -63 -5 -157 -14 -177 -17 -14 -3 -69 -8
-122 -11 -73 -5 -102 -3 -113 6 -13 11 -23 10 -57 -1 -23 -7 -73 -13 -112 -12
-39 1 -128 2 -198 3 -118 1 -128 3 -128 20 0 10 5 22 10 25 14 8 13 55 -1 55
-8 0 -9 11 -4 33 4 17 9 75 10 127 1 52 5 106 9 119 9 25 -21 131 -36 131 -19
0 -25 3 -55 26 -17 13 -33 24 -35 24 -2 0 -21 -10 -43 -23z"/>
<path d="M2049 2660 c-27 -8 -88 -47 -101 -65 -14 -19 -8 -62 11 -87 11 -13
38 -37 60 -53 36 -25 45 -27 68 -16 21 10 29 9 44 -5 18 -16 20 -16 39 1 12
11 20 13 20 6 0 -7 5 -9 11 -6 15 10 79 12 79 3 0 -15 1 -18 14 -43 8 -14 12
-39 11 -55 -1 -17 2 -30 7 -30 5 0 7 -4 4 -9 -3 -5 2 -26 11 -47 9 -22 17 -69
18 -105 1 -36 5 -70 8 -76 4 -6 0 -14 -8 -17 -12 -4 -13 -10 -5 -25 10 -20 4
-51 -10 -51 -12 0 -46 -34 -64 -66 -18 -29 -18 -32 -1 -57 9 -14 30 -32 46
-39 16 -7 30 -16 30 -20 1 -5 2 -11 4 -15 18 -71 20 -106 9 -233 -3 -36 -5
-90 -4 -120 1 -54 18 -120 31 -120 3 0 4 -12 1 -26 -4 -25 -3 -26 21 -20 20 5
27 2 32 -14 14 -43 90 -50 118 -10 7 10 30 20 55 23 23 4 51 11 62 17 11 6 20
7 20 3 0 -14 104 -12 120 2 9 8 31 12 53 11 20 -2 37 0 37 3 0 9 93 7 108 -2
6 -5 12 -4 12 1 0 13 68 45 100 47 14 1 47 13 73 25 26 12 51 20 54 16 4 -3
16 0 27 7 12 8 35 13 51 11 18 -1 38 6 51 18 12 10 37 20 55 21 19 1 43 10 54
20 11 10 38 23 61 28 26 7 46 19 54 34 7 13 22 26 33 29 12 3 18 8 14 12 -4 4
5 18 19 31 24 22 42 62 49 110 2 17 -8 33 -38 58 -42 36 -140 89 -167 90 -13
1 -50 9 -85 20 -5 1 -13 3 -17 4 -4 1 -22 7 -40 12 -18 5 -55 12 -83 15 -63 6
-66 6 -90 1 -11 -2 -24 -2 -30 1 -5 4 -28 7 -50 7 -22 0 -45 4 -51 8 -7 3 -52
7 -100 7 -49 0 -111 0 -139 1 -108 0 -155 5 -167 17 -7 8 -8 12 -3 11 6 -2 21
3 34 10 13 7 34 11 47 8 13 -2 24 -1 24 3 0 7 16 14 55 25 6 1 24 5 40 8 59 9
138 40 163 64 20 19 64 31 75 21 1 -2 18 7 38 20 20 12 38 20 41 17 8 -8 122
52 144 76 45 49 63 89 54 120 -5 16 -9 32 -9 34 -1 13 -18 33 -38 44 -13 6
-23 18 -23 26 0 15 -9 19 -47 17 -13 -1 -23 3 -23 8 0 8 -46 27 -90 35 -12 2
-34 12 -47 21 -14 9 -42 17 -63 19 -20 2 -55 12 -76 23 -24 12 -47 17 -59 12
-28 -10 -82 -2 -119 17 -20 11 -61 17 -121 19 -94 3 -159 9 -210 21 -45 10
-45 10 -47 13 -4 4 -40 9 -63 9 -138 0 -238 5 -250 12 -5 4 -22 3 -36 -1z
m525 -250 c17 -6 26 -6 26 1 0 12 42 7 61 -7 8 -5 49 -9 92 -9 42 0 77 -3 77
-8 0 -4 4 -6 9 -2 5 3 12 1 15 -4 3 -5 21 -9 40 -9 19 0 47 -9 64 -22 23 -17
34 -20 48 -12 13 7 26 6 45 -3 15 -8 29 -12 32 -9 8 8 47 -28 41 -38 -3 -4
-14 -8 -25 -8 -10 0 -19 -4 -19 -10 0 -5 -8 -10 -17 -10 -10 -1 -36 -8 -58
-16 -22 -8 -51 -17 -64 -20 -13 -3 -45 -17 -70 -32 -25 -15 -48 -26 -51 -26
-3 0 -23 -7 -45 -17 -22 -9 -56 -19 -75 -20 -19 -2 -42 -11 -50 -21 -20 -23
-97 -30 -91 -8 2 8 3 20 2 25 -4 22 -11 94 -15 160 -3 39 -7 85 -9 103 -5 35
-1 37 37 22z m50 -628 c6 -5 37 -8 69 -8 31 1 57 -2 57 -6 0 -3 19 -4 43 -2
60 7 232 2 232 -6 0 -3 100 -12 153 -13 28 -1 52 -5 52 -10 0 -4 13 -5 29 -2
18 3 33 0 41 -10 8 -10 17 -12 24 -6 7 6 31 2 66 -11 30 -11 62 -22 71 -25 27
-8 10 -41 -26 -53 -18 -6 -41 -20 -51 -31 -10 -11 -28 -19 -40 -17 -12 2 -31
-5 -42 -15 -21 -19 -43 -25 -119 -31 -27 -2 -58 -8 -69 -13 -10 -6 -39 -13
-64 -17 -24 -4 -49 -10 -55 -15 -18 -13 -89 -30 -120 -29 -16 0 -38 -2 -47 -6
-10 -3 -26 -9 -35 -12 -10 -3 -47 -8 -83 -10 -36 -2 -80 -5 -99 -6 -31 -3 -35
0 -42 26 -5 16 -4 37 1 46 6 11 5 35 -3 66 -7 27 -11 60 -9 74 4 32 3 47 -2
89 -7 57 27 84 68 53z"/>
</g>
</svg>
