<?xml version="1.0" standalone="no"?>
<!DOCTYPE svg PUBLIC "-//W3C//DTD SVG 20010904//EN"
 "http://www.w3.org/TR/2001/REC-SVG-20010904/DTD/svg10.dtd">
<svg version="1.0" xmlns="http://www.w3.org/2000/svg"
 width="200.000000pt" height="200.000000pt" viewBox="0 0 200.000000 200.000000"
 preserveAspectRatio="xMidYMid meet">
<metadata>
Created by potrace 1.14, written by Peter Selinger 2001-2017
</metadata>
<g transform="translate(0.000000,200.000000) scale(0.100000,-0.100000)"
fill="#000000" stroke="none">
<path d="M956 1818 c3 -4 -15 -7 -38 -6 -60 1 -105 -6 -115 -16 -4 -5 -3 -6 5
-2 6 4 12 2 12 -3 0 -6 -12 -11 -27 -11 -23 0 -25 2 -13 11 12 9 12 10 -3 5
-10 -3 -23 -6 -27 -6 -5 0 -14 -9 -20 -20 -9 -16 -8 -20 5 -20 8 0 15 7 15 15
0 8 5 15 11 15 5 0 7 -5 3 -12 -5 -7 -2 -9 9 -5 8 3 33 9 54 12 21 4 45 9 53
11 24 8 239 10 234 2 -3 -4 13 -5 33 -2 21 2 31 1 23 -2 -18 -9 75 -33 100
-27 10 3 21 0 24 -6 5 -7 0 -9 -11 -5 -17 5 -17 5 0 -6 14 -9 22 -9 33 1 12
10 13 9 7 -7 -6 -17 -5 -18 12 -4 17 14 18 13 12 -2 -5 -13 -1 -18 13 -18 11
0 20 -5 20 -11 0 -8 6 -7 17 2 15 12 16 12 10 -3 -7 -20 38 -55 46 -35 3 7 6
4 6 -6 1 -10 5 -16 11 -12 5 3 7 11 4 18 -6 18 -66 52 -83 49 -7 -2 -10 1 -6
7 3 7 0 8 -9 5 -9 -3 -16 -1 -16 5 0 14 -64 43 -88 40 -30 -3 -37 1 -22 12 12
8 9 9 -12 5 -14 -3 -28 -2 -30 4 -3 10 -37 15 -175 28 -44 4 -79 4 -77 0z
m479 -138 c3 -6 -1 -7 -9 -4 -18 7 -21 14 -7 14 6 0 13 -4 16 -10z"/>
<path d="M680 1764 c-25 -11 -31 -17 -21 -23 10 -7 10 -9 -2 -14 -8 -3 -21 0
-28 6 -11 10 -11 9 0 -5 12 -16 15 -16 46 -1 18 9 36 24 38 34 3 11 4 19 4 19
-1 -1 -18 -8 -37 -16z m10 -14 c0 -5 -5 -10 -11 -10 -5 0 -7 5 -4 10 3 6 8 10
11 10 2 0 4 -4 4 -10z"/>
<path d="M585 1716 c-50 -27 -115 -78 -110 -86 3 -5 0 -12 -6 -16 -8 -5 -9 -3
-4 6 5 8 3 11 -6 8 -8 -3 -13 -12 -13 -21 1 -8 -4 -13 -11 -11 -13 6 -107 -95
-100 -107 3 -4 -2 -9 -10 -13 -8 -3 -15 -10 -15 -17 0 -6 -11 -25 -26 -41 -14
-17 -23 -37 -20 -44 3 -8 0 -14 -7 -14 -8 0 -6 -4 3 -10 11 -7 11 -10 2 -10
-7 0 -10 -5 -6 -11 4 -8 9 -7 15 2 4 7 5 17 3 21 -3 4 0 8 7 8 8 0 8 4 -1 15
-10 12 -9 16 6 21 11 4 27 16 36 28 13 16 14 24 5 35 -10 12 -9 14 5 8 12 -4
24 3 40 26 12 18 26 35 31 38 5 4 7 12 3 18 -5 7 -1 8 10 4 11 -4 15 -2 11 4
-4 6 14 23 38 39 31 19 41 30 32 36 -12 7 -8 9 23 12 8 1 14 7 13 14 -2 7 0
11 5 10 18 -4 63 23 56 34 -5 8 -2 9 9 5 10 -3 17 -2 17 3 0 15 -14 17 -35 6z
m-201 -189 c-2 -7 -14 -18 -25 -25 -21 -13 -21 -13 -3 12 20 27 37 35 28 13z"/>
<path d="M1484 1645 c0 -20 2 -22 15 -12 12 9 13 9 7 -1 -4 -7 10 -31 41 -63
41 -43 48 -48 54 -32 7 15 8 15 8 -5 1 -14 5 -21 12 -16 7 4 9 0 5 -14 -4 -13
-1 -22 9 -26 8 -3 14 -9 13 -13 -2 -4 10 -26 25 -48 15 -22 27 -34 27 -27 0 7
5 10 10 7 8 -5 7 -11 -1 -21 -10 -12 -9 -13 5 -8 9 3 16 9 16 13 0 13 -51 81
-60 81 -6 0 -10 9 -10 21 0 14 -5 19 -14 16 -10 -4 -13 -1 -10 7 6 15 -42 76
-59 76 -7 0 -5 -5 3 -10 13 -8 13 -10 -2 -10 -20 0 -32 16 -18 25 14 8 7 18
-38 54 l-38 30 0 -24z m59 -35 c9 -11 13 -20 8 -20 -4 0 -16 9 -26 20 -10 11
-14 20 -9 20 5 0 17 -9 27 -20z m156 -204 c-2 -2 -13 8 -23 22 l-19 27 24 -22
c12 -12 21 -24 18 -27z"/>
<path d="M1716 1352 c-8 -13 11 -35 23 -28 6 4 11 3 11 -3 0 -5 -4 -11 -9 -13
-6 -2 -2 -26 8 -55 10 -29 21 -50 24 -46 4 3 7 -5 7 -19 0 -14 7 -28 15 -32
19 -7 19 -2 -1 35 -8 17 -13 37 -10 44 3 8 0 12 -8 9 -8 -3 -12 5 -10 26 1 16
-2 30 -8 30 -5 0 -6 4 -3 10 7 11 -12 50 -25 50 -5 0 -11 -4 -14 -8z"/>
<path d="M246 1305 c7 -18 6 -19 -10 -6 -16 13 -17 13 -15 0 2 -7 -3 -25 -10
-38 -8 -14 -9 -21 -2 -17 16 10 13 -10 -3 -24 -8 -6 -12 -18 -9 -26 3 -8 0
-14 -6 -14 -6 0 -11 -8 -11 -17 1 -17 1 -17 14 -1 7 10 16 14 20 10 5 -4 7 0
5 8 -1 8 3 28 9 43 7 16 12 34 12 41 0 6 5 17 12 24 9 9 9 15 -1 25 -10 10
-11 8 -5 -8z"/>
<path d="M334 1281 c-11 -5 -28 -21 -37 -35 -15 -23 -16 -30 -4 -58 23 -55 40
-63 88 -44 47 19 55 16 40 -12 -6 -12 -11 -47 -11 -79 0 -89 -6 -101 -48 -105
-51 -4 -53 -29 -7 -75 27 -27 39 -49 46 -87 9 -51 31 -91 61 -109 11 -7 27 -4
54 9 42 21 54 51 35 88 -7 12 -13 34 -14 49 -2 32 5 36 143 77 149 45 250 115
250 172 0 30 -31 76 -70 103 -22 15 -40 32 -40 36 0 5 -8 9 -17 9 -9 0 -42 8
-72 19 -115 38 -349 63 -397 42z m361 -161 c11 0 36 -10 55 -21 l34 -21 -23
-19 c-12 -10 -55 -28 -94 -39 -40 -11 -84 -24 -99 -29 -33 -11 -35 -3 -12 41
10 18 12 34 6 40 -5 5 -5 22 2 42 l10 33 50 -13 c28 -8 60 -14 71 -14z"/>
<path d="M1488 1279 c-15 -6 -30 -19 -33 -28 -7 -22 -107 -127 -149 -156 -35
-25 -143 -65 -175 -65 -23 0 -23 0 -16 88 6 84 6 88 -19 115 -18 19 -35 27
-60 27 -63 0 -67 -15 -70 -287 -2 -131 -6 -250 -10 -265 -9 -32 24 -71 57 -66
42 6 84 118 87 231 0 17 3 16 33 -4 17 -13 53 -40 78 -61 25 -21 55 -38 67
-38 11 0 23 -4 26 -9 3 -5 31 -20 61 -35 106 -50 232 -29 304 50 46 49 49 62
23 94 -23 29 -53 23 -107 -20 -62 -49 -110 -43 -234 27 -55 32 -98 60 -95 64
2 4 26 15 52 23 79 27 161 88 208 157 50 71 56 112 24 147 -12 12 -22 22 -23
21 -1 0 -14 -5 -29 -10z"/>
<path d="M183 1133 c-8 -3 -13 -24 -13 -58 0 -51 11 -77 24 -56 4 5 2 12 -4
16 -5 3 -9 25 -8 48 l1 42 6 -45 7 -45 5 43 c5 47 0 61 -18 55z"/>
<path d="M1787 1128 c-2 -7 0 -21 5 -31 5 -11 7 -30 3 -44 -4 -16 -2 -22 5
-18 5 3 10 -1 10 -9 0 -9 4 -16 8 -16 5 0 9 7 9 15 0 8 -5 15 -10 15 -6 0 -7
16 -3 39 4 27 2 42 -8 50 -11 9 -15 9 -19 -1z"/>
<path d="M160 967 c1 -64 25 -184 52 -258 147 -399 569 -624 985 -524 97 23
256 105 332 170 173 147 277 346 297 569 6 69 5 73 -15 79 -19 5 -21 1 -21
-36 0 -79 -38 -226 -79 -312 -142 -291 -440 -470 -756 -451 -125 7 -196 26
-310 81 -249 121 -418 368 -441 647 -6 63 -9 74 -25 75 -16 2 -19 -5 -19 -40z"/>
</g>
</svg>
